<svg width="100" height="36" viewBox="0 0 100 36" fill="none" xmlns="http://www.w3.org/2000/svg">
<g clip-path="url(#clip0_2848_5690)">
<path fill-rule="evenodd" clip-rule="evenodd" d="M59.2468 17.2189C59.4153 16.971 59.5192 16.6283 59.5192 16.2496C59.5192 15.4942 59.105 14.8818 58.5946 14.8818C58.0841 14.8818 57.6699 15.4942 57.6699 16.2496C57.6699 16.6283 57.7745 16.971 57.9424 17.2189C57.7738 17.4669 57.6699 17.8095 57.6699 18.1882C57.6699 18.5547 57.7676 18.8864 57.9265 19.1316C57.7683 19.3768 57.6699 19.7086 57.6699 20.075C57.6699 20.3584 57.7284 20.6213 57.8282 20.84C57.7284 21.0586 57.6699 21.3216 57.6699 21.6049C57.6699 22.3603 58.0841 22.9727 58.5946 22.9727C59.105 22.9727 59.5192 22.3603 59.5192 21.6049C59.5192 21.3216 59.4607 21.0586 59.361 20.84C59.4607 20.6213 59.5192 20.3584 59.5192 20.075C59.5192 19.7086 59.4215 19.3768 59.2633 19.1316C59.4215 18.8864 59.5192 18.5547 59.5192 18.1882C59.5192 17.8095 59.4146 17.4669 59.2468 17.2189Z" fill="#F4F4F4"/>
<path d="M58.5947 12.6763V22.9244C60.2782 24.5169 62.4385 25.6184 64.8423 25.9991L58.5947 12.6763Z" fill="white"/>
<path fill-rule="evenodd" clip-rule="evenodd" d="M59.1736 0C59.1701 0.00204349 59.1674 0.00408698 59.1639 0.00613047C59.1605 0.00817396 59.1577 0.0102174 59.1543 0.0122609L59.1736 0ZM59.7246 13.801C62.233 14.9263 65.3468 14.7397 67.9178 13.049C70.4888 11.3584 71.8682 8.58742 71.7925 5.86209L59.7246 13.801Z" fill="#F4F4F4"/>
<path fill-rule="evenodd" clip-rule="evenodd" d="M58.5947 1.69482V18.8111C60.7935 16.6879 62.1722 13.6397 62.1722 10.253C62.1722 6.86622 60.7935 3.81801 58.5947 1.69482Z" fill="white"/>
<path fill-rule="evenodd" clip-rule="evenodd" d="M58.5947 1.69482V18.8111C60.7935 16.6879 62.1722 13.6397 62.1722 10.253C62.1722 6.86622 60.7935 3.81801 58.5947 1.69482Z" fill="white"/>
<path fill-rule="evenodd" clip-rule="evenodd" d="M66.091 21.7023C65.2957 22.4012 64.2485 22.8256 63.101 22.8256C60.6126 22.8256 58.5947 20.8277 58.5947 18.364C58.5947 15.9002 60.6126 13.9023 63.101 13.9023C64.4178 13.9023 65.6032 14.4616 66.4274 15.3539L70.8435 18.8687C71.2295 18.6555 71.6746 18.5343 72.1479 18.5343C73.6298 18.5343 74.8311 19.7236 74.8311 21.1908C74.8311 22.658 73.6298 23.8473 72.1479 23.8473C71.7111 23.8473 71.2983 23.7438 70.933 23.5599L69.8088 21.6676L69.5501 22.8637L66.091 21.7023Z" fill="#EAEAEA"/>
<path d="M63.4105 22.8258C65.3863 22.8258 66.988 21.24 66.988 19.2837C66.988 17.3275 65.3863 15.7417 63.4105 15.7417C61.4347 15.7417 59.833 17.3275 59.833 19.2837C59.833 21.24 61.4347 22.8258 63.4105 22.8258Z" fill="white"/>
<path d="M65.2334 18.8748C65.8223 18.8748 66.2997 18.4021 66.2997 17.819C66.2997 17.2359 65.8223 16.7632 65.2334 16.7632C64.6444 16.7632 64.167 17.2359 64.167 17.819C64.167 18.4021 64.6444 18.8748 65.2334 18.8748Z" fill="#EAEAEA"/>
<path d="M65.7859 18.0557C66.0318 18.0557 66.2311 17.8584 66.2311 17.615C66.2311 17.3716 66.0318 17.1743 65.7859 17.1743C65.5401 17.1743 65.3408 17.3716 65.3408 17.615C65.3408 17.8584 65.5401 18.0557 65.7859 18.0557Z" fill="black"/>
<path d="M74.1425 21.0547C74.5605 21.0547 74.8993 20.7192 74.8993 20.3054C74.8993 19.8916 74.5605 19.5562 74.1425 19.5562C73.7246 19.5562 73.3857 19.8916 73.3857 20.3054C73.3857 20.7192 73.7246 21.0547 74.1425 21.0547Z" fill="white"/>
<path d="M74.4521 20.7141C74.699 20.7141 74.8993 20.5159 74.8993 20.2714C74.8993 20.0268 74.699 19.8286 74.4521 19.8286C74.2051 19.8286 74.0049 20.0268 74.0049 20.2714C74.0049 20.5159 74.2051 20.7141 74.4521 20.7141Z" fill="#3E3E3E"/>
<path d="M62.7226 17.4448H58.5947V17.7854H62.7226V17.4448Z" fill="#0E1A26"/>
<path fill-rule="evenodd" clip-rule="evenodd" d="M65.1643 20.2371C66.627 20.2371 67.8131 19.0628 67.8131 17.6147C67.8131 16.1665 66.627 14.9922 65.1643 14.9922C63.7017 14.9922 62.5156 16.1665 62.5156 17.6147C62.5156 19.0628 63.701 20.2371 65.1643 20.2371ZM65.1643 19.932C66.4571 19.932 67.5049 18.8946 67.5049 17.6147C67.5049 16.3348 66.4571 15.2973 65.1643 15.2973C63.8716 15.2973 62.8245 16.3348 62.8245 17.6147C62.8245 18.8946 63.8716 19.932 65.1643 19.932Z" fill="#0E1A26"/>
<path d="M15.4823 15.8785C15.3034 15.0611 14.9856 14.4392 14.5281 14.0142C14.0761 13.583 13.4459 13.2935 12.6368 13.1443C11.8278 12.9951 10.7958 12.9209 9.54022 12.9209H0V25.6478H9.54022C10.7958 25.6478 11.8278 25.5674 12.6368 25.4073C13.4459 25.2418 14.0761 24.9407 14.5281 24.5041C14.9856 24.062 15.3034 23.4353 15.4823 22.6234C15.6667 21.806 15.7589 20.7481 15.7589 19.4498V19.1181C15.7589 17.7755 15.6667 16.6959 15.4823 15.8785ZM14.1518 19.4498C14.1518 20.5547 14.096 21.43 13.9846 22.0764C13.8731 22.7228 13.6585 23.2031 13.3399 23.5184C13.0221 23.8331 12.5591 24.0375 11.9509 24.1315C11.3427 24.2255 10.5392 24.2725 9.54091 24.2725H1.60712V14.2955H9.54091C10.339 14.2955 11.0111 14.3173 11.5581 14.3616C12.105 14.4058 12.5481 14.5107 12.8886 14.6763C13.2347 14.8363 13.4968 15.0904 13.675 15.4385C13.8594 15.7811 13.9846 16.2504 14.0513 16.8471C14.118 17.4438 14.1518 18.2006 14.1518 19.1174V19.4498Z" fill="white"/>
<path d="M34.2389 16.2845C34.1274 15.5168 33.9348 14.8922 33.6617 14.412C33.3885 13.9311 33.0143 13.5639 32.5403 13.3099C32.0718 13.0558 31.4801 12.8848 30.766 12.7963C30.0518 12.7023 29.1926 12.6553 28.1881 12.6553H24.8156C23.8112 12.6553 22.9519 12.7023 22.2378 12.7963C21.5236 12.8848 20.9292 13.0558 20.4552 13.3099C19.9867 13.5639 19.6159 13.9311 19.3421 14.412C19.0689 14.8929 18.8763 15.5168 18.7648 16.2845C18.6534 17.0467 18.5977 17.9915 18.5977 19.1182V19.4499C18.5977 20.8142 18.6871 21.9218 18.8653 22.7726C19.0497 23.6234 19.3675 24.2752 19.8195 24.7282C20.277 25.1812 20.91 25.4904 21.719 25.656C22.5281 25.8269 23.5601 25.9128 24.8156 25.9128H28.1881C29.4437 25.9128 30.4756 25.8269 31.2847 25.656C32.0938 25.4904 32.724 25.1812 33.176 24.7282C33.6335 24.2752 33.9513 23.6234 34.1302 22.7726C34.3146 21.9218 34.4061 20.8142 34.4061 19.4499V19.1182C34.4061 17.9915 34.3503 17.0467 34.2389 16.2845ZM32.7996 19.4499C32.7996 20.3892 32.7659 21.1678 32.6992 21.7863C32.6325 22.4048 32.5066 22.8993 32.3229 23.2692C32.144 23.639 31.8819 23.9156 31.5365 24.0975C31.196 24.28 30.7529 24.3985 30.2059 24.4537C29.659 24.5089 28.9868 24.5368 28.1888 24.5368H24.8156C24.0176 24.5368 23.3454 24.5089 22.7985 24.4537C22.2515 24.3985 21.805 24.28 21.4597 24.0975C21.1191 23.9149 20.857 23.639 20.6733 23.2692C20.4944 22.8993 20.372 22.4048 20.3052 21.7863C20.2385 21.1678 20.2048 20.3885 20.2048 19.4499V19.1182C20.2048 18.1461 20.2385 17.3451 20.3052 16.715C20.372 16.0849 20.4951 15.5884 20.6733 15.2233C20.8577 14.8588 21.1198 14.5932 21.4597 14.4277C21.8057 14.2567 22.2522 14.1484 22.7985 14.1048C23.3454 14.0551 24.0176 14.0305 24.8156 14.0305H28.1881C28.9862 14.0305 29.6583 14.0551 30.2053 14.1048C30.7522 14.1491 31.1953 14.2567 31.5358 14.4277C31.8819 14.5932 32.144 14.8588 32.3222 15.2233C32.5066 15.5877 32.6318 16.0849 32.6985 16.715C32.7652 17.3444 32.7989 18.1455 32.7989 19.1182V19.4499H32.7996Z" fill="white"/>
<path d="M37.7803 25.6479V12.9204H39.4541L52.3675 23.6842H52.384V12.9204H53.9912V25.6479H52.3173L39.4039 14.7929H39.3874V25.6479H37.7803Z" fill="white"/>
<path d="M79.8884 12.9204H78.2812V25.6479H79.8884V12.9204Z" fill="white"/>
<path d="M83.79 25.6479V12.9204H85.4639L98.3766 23.6842H98.3938V12.9204H100V25.6479H98.3264L85.4137 14.7929H85.3965V25.6479H83.79Z" fill="white"/>
</g>
<defs>
<clipPath id="clip0_2848_5690">
<rect width="100" height="36" fill="white"/>
</clipPath>
</defs>
</svg>
