<svg width="141" height="141" viewBox="0 0 141 141" fill="none" xmlns="http://www.w3.org/2000/svg">
<g transform="translate(40, 5)">
<path fill-rule="evenodd" clip-rule="evenodd" d="M8.49949 92.7907C9.40771 91.4548 9.96773 89.6081 9.96773 87.5673C9.96773 83.4965 7.7352 80.1964 4.98414 80.1964C2.23255 80.1964 0 83.4965 0 87.5673C0 89.6081 0.56381 91.4548 1.46879 92.7907C0.560037 94.1272 0 95.9734 0 98.0142C0 99.9892 0.5266 101.777 1.38307 103.098C0.530373 104.419 0 106.207 0 108.182C0 109.709 0.315327 111.126 0.853249 112.304C0.315327 113.482 0 114.9 0 116.426C0 120.497 2.23255 123.797 4.98414 123.797C7.7352 123.797 9.96773 120.497 9.96773 116.426C9.96773 114.9 9.65242 113.482 9.11503 112.304C9.65242 111.126 9.96773 109.709 9.96773 108.182C9.96773 106.207 9.44114 104.419 8.58844 103.098C9.44114 101.777 9.96773 99.9892 9.96773 98.0142C9.96773 95.9734 9.40394 94.1272 8.49949 92.7907Z" fill="#F4F4F4"/>
<path d="M4.98468 68.3112V123.537C14.0587 132.119 25.7028 138.055 38.6592 140.106L4.98468 68.3112Z" fill="white"/>
<path fill-rule="evenodd" clip-rule="evenodd" d="M8.10493 0C8.08607 0.0110121 8.07151 0.0220243 8.05265 0.0330364C8.03432 0.0440486 8.01924 0.0550604 8.00092 0.0660726L8.10493 0ZM11.0748 74.3721C24.5951 80.4362 41.3785 79.4306 55.2362 70.3196C69.0939 61.2092 76.5288 46.2767 76.1208 31.5902L11.0748 74.3721Z" fill="#F4F4F4"/>
<path fill-rule="evenodd" clip-rule="evenodd" d="M4.98468 9.13319V101.371C16.8362 89.9292 24.2674 73.5028 24.2674 55.2523C24.2674 37.0013 16.8362 20.5748 4.98468 9.13319Z" fill="white"/>
<path fill-rule="evenodd" clip-rule="evenodd" d="M4.98468 9.13319V101.371C16.8362 89.9292 24.2674 73.5028 24.2674 55.2523C24.2674 37.0013 16.8362 20.5748 4.98468 9.13319Z" fill="white"/>
<path fill-rule="evenodd" clip-rule="evenodd" d="M45.3898 116.951C41.1031 120.718 35.4587 123.005 29.2736 123.005C15.8612 123.005 4.98468 112.238 4.98468 98.9615C4.98468 85.6844 15.8612 74.9179 29.2736 74.9179C36.3712 74.9179 42.7605 77.9319 47.2029 82.7404L71.0057 101.681C73.0862 100.532 75.4854 99.8793 78.0364 99.8793C86.0239 99.8793 92.4989 106.288 92.4989 114.195C92.4989 122.101 86.0239 128.51 78.0364 128.51C75.6821 128.51 73.4571 127.953 71.4881 126.962L65.4287 116.764L64.0343 123.21L45.3898 116.951Z" fill="#EAEAEA"/>
<path d="M30.9418 123.006C41.5914 123.006 50.2246 114.46 50.2246 103.918C50.2246 93.376 41.5914 84.8303 30.9418 84.8303C20.2923 84.8303 11.6591 93.376 11.6591 103.918C11.6591 114.46 20.2923 123.006 30.9418 123.006Z" fill="white"/>
<path d="M40.7673 101.714C43.9414 101.714 46.5146 99.1669 46.5146 96.0246C46.5146 92.8823 43.9414 90.335 40.7673 90.335C37.5926 90.335 35.0194 92.8823 35.0194 96.0246C35.0194 99.1669 37.5926 101.714 40.7673 101.714Z" fill="#EAEAEA"/>
<path d="M43.7452 97.3002C45.0706 97.3002 46.1449 96.2369 46.1449 94.9253C46.1449 93.6136 45.0706 92.5504 43.7452 92.5504C42.4204 92.5504 41.3461 93.6136 41.3461 94.9253C41.3461 96.2369 42.4204 97.3002 43.7452 97.3002Z" fill="black"/>
<path d="M88.7873 113.461C91.0403 113.461 92.8665 111.653 92.8665 109.424C92.8665 107.194 91.0403 105.386 88.7873 105.386C86.5348 105.386 84.7081 107.194 84.7081 109.424C84.7081 111.653 86.5348 113.461 88.7873 113.461Z" fill="white"/>
<path d="M90.4561 111.626C91.7869 111.626 92.8665 110.558 92.8665 109.24C92.8665 107.922 91.7869 106.854 90.4561 106.854C89.1248 106.854 88.0457 107.922 88.0457 109.24C88.0457 110.558 89.1248 111.626 90.4561 111.626Z" fill="#3E3E3E"/>
<path d="M27.2341 94.0081H4.98468V95.8435H27.2341V94.0081Z" fill="#0E1A26"/>
<path fill-rule="evenodd" clip-rule="evenodd" d="M40.3948 109.055C48.2788 109.055 54.6719 102.727 54.6719 94.9237C54.6719 87.1195 48.2788 80.7913 40.3948 80.7913C32.5114 80.7913 26.1183 87.1195 26.1183 94.9237C26.1183 102.727 32.5076 109.055 40.3948 109.055ZM40.3948 107.411C47.363 107.411 53.0106 101.821 53.0106 94.9237C53.0106 88.0264 47.363 82.4354 40.3948 82.4354C33.4272 82.4354 27.7833 88.0264 27.7833 94.9237C27.7833 101.821 33.4272 107.411 40.3948 107.411Z" fill="#0E1A26"/>
</g>
</svg>
