<svg width="178" height="268" viewBox="0 0 178 268" fill="none" xmlns="http://www.w3.org/2000/svg">
<path fill-rule="evenodd" clip-rule="evenodd" d="M16.242 176.975C17.9782 174.427 19.0482 170.905 19.0482 167.013C19.0482 159.249 14.7823 152.955 9.52434 152.955C4.26638 152.955 0.000488281 159.249 0.000488281 167.013C0.000488281 170.905 1.07761 174.427 2.80664 176.975C1.07052 179.523 0.000488281 183.045 0.000488281 186.937C0.000488281 190.704 1.00671 194.113 2.64363 196.633C1.0138 199.154 0.000488281 202.563 0.000488281 206.33C0.000488281 209.242 0.602806 211.944 1.6303 214.191C0.602806 216.439 0.000488281 219.141 0.000488281 222.053C0.000488281 229.817 4.26638 236.111 9.52434 236.111C14.7823 236.111 19.0482 229.817 19.0482 222.053C19.0482 219.141 18.4459 216.439 17.4184 214.191C18.4459 211.944 19.0482 209.242 19.0482 206.33C19.0482 202.563 18.0419 199.154 16.4121 196.633C18.0419 194.113 19.0482 190.704 19.0482 186.937C19.0482 183.045 17.9711 179.523 16.242 176.975Z" fill="#393939"/>
<path d="M9.52441 130.285V235.613C26.8643 251.981 49.115 263.301 73.8742 267.215L9.52441 130.285Z" fill="black"/>
<path fill-rule="evenodd" clip-rule="evenodd" d="M15.4875 0C15.452 0.0210025 15.4237 0.0420051 15.3883 0.0630076C15.3528 0.0840101 15.3245 0.105013 15.2891 0.126015L15.4875 0ZM21.1635 141.844C46.9998 153.41 79.0719 151.491 105.553 134.115C132.034 116.739 146.242 88.2596 145.463 60.2493L21.1635 141.844Z" fill="#393939"/>
<path fill-rule="evenodd" clip-rule="evenodd" d="M9.52441 17.418V193.335C32.1719 171.514 46.3726 140.185 46.3726 105.377C46.3726 70.5684 32.1719 39.2396 9.52441 17.418Z" fill="white"/>
<path fill-rule="evenodd" clip-rule="evenodd" d="M9.52441 17.418V193.335C32.1719 171.514 46.3726 140.185 46.3726 105.377C46.3726 70.5684 32.1719 39.2396 9.52441 17.418Z" fill="black"/>
<path fill-rule="evenodd" clip-rule="evenodd" d="M86.7356 223.053C78.544 230.236 67.7588 234.598 55.939 234.598C30.3082 234.598 9.52441 214.064 9.52441 188.742C9.52441 163.42 30.3082 142.887 55.939 142.887C69.502 142.887 81.7115 148.634 90.2008 157.806L135.687 193.93C139.662 191.739 144.247 190.492 149.122 190.492C164.386 190.492 176.759 202.716 176.759 217.796C176.759 232.876 164.386 245.099 149.122 245.099C144.623 245.099 140.371 244.035 136.608 242.145L125.029 222.696L122.365 234.99L86.7356 223.053Z" fill="#393939"/>
<path d="M59.1275 234.598C79.4782 234.598 95.9757 218.299 95.9757 198.193C95.9757 178.088 79.4782 161.789 59.1275 161.789C38.7768 161.789 22.2793 178.088 22.2793 198.193C22.2793 218.299 38.7768 234.598 59.1275 234.598Z" fill="black"/>
<path d="M77.9035 193.992C83.9696 193.992 88.8871 189.133 88.8871 183.14C88.8871 177.147 83.9696 172.289 77.9035 172.289C71.8374 172.289 66.9199 177.147 66.9199 183.14C66.9199 189.133 71.8374 193.992 77.9035 193.992Z" fill="#393939"/>
<path d="M83.5965 185.571C86.1286 185.571 88.1813 183.543 88.1813 181.041C88.1813 178.54 86.1286 176.512 83.5965 176.512C81.0644 176.512 79.0117 178.54 79.0117 181.041C79.0117 183.543 81.0644 185.571 83.5965 185.571Z" fill="white"/>
<path d="M169.668 216.396C173.973 216.396 177.463 212.948 177.463 208.695C177.463 204.442 173.973 200.994 169.668 200.994C165.363 200.994 161.873 204.442 161.873 208.695C161.873 212.948 165.363 216.396 169.668 216.396Z" fill="black"/>
<path d="M172.857 212.896C175.4 212.896 177.463 210.859 177.463 208.345C177.463 205.832 175.4 203.795 172.857 203.795C170.313 203.795 168.25 205.832 168.25 208.345C168.25 210.859 170.313 212.896 172.857 212.896Z" fill="white"/>
<path d="M52.0416 179.291H9.52441V182.791H52.0416V179.291Z" fill="white"/>
<path fill-rule="evenodd" clip-rule="evenodd" d="M77.193 207.992C92.2582 207.992 104.475 195.923 104.475 181.039C104.475 166.155 92.2582 154.086 77.193 154.086C62.1277 154.086 49.9111 166.155 49.9111 181.039C49.9111 195.923 62.1207 207.992 77.193 207.992ZM77.193 204.856C90.508 204.856 101.3 194.194 101.3 181.039C101.3 167.885 90.508 157.222 77.193 157.222C63.878 157.222 53.0928 167.885 53.0928 181.039C53.0928 194.194 63.878 204.856 77.193 204.856Z" fill="white"/>
</svg>
