<svg width="12" height="12" viewBox="0 0 12 12" fill="none" xmlns="http://www.w3.org/2000/svg">
<path fill-rule="evenodd" clip-rule="evenodd" d="M10.8613 2.71631C11.0004 2.03829 10.3344 1.47483 9.68878 1.72428L1.77475 4.78198C1.05376 5.06054 1.02164 6.06875 1.72343 6.39263L3.44688 7.18809L4.26675 10.0576C4.30934 10.2067 4.42761 10.3221 4.57767 10.361C4.72773 10.3998 4.88716 10.3564 4.99678 10.2468L6.2597 8.98385L8.02882 10.3107C8.54235 10.6958 9.28199 10.4153 9.41097 9.78649L10.8613 2.71631ZM2.0901 5.59817L10.0041 2.54048L8.55382 9.6107L6.48116 8.05618C6.30699 7.92554 6.06326 7.94286 5.9093 8.09682L5.36838 8.63774L5.53091 7.74389L8.71552 4.5593C8.87052 4.40431 8.88689 4.15856 8.75384 3.98438C8.6208 3.81019 8.37943 3.76134 8.18912 3.87008L3.79108 6.38322L2.0901 5.59817ZM4.32733 7.08458L4.59262 8.01313L4.69447 7.45291C4.71039 7.36536 4.75263 7.28473 4.81556 7.22182L5.78676 6.25066L4.32733 7.08458Z" fill="white" fill-opacity="0.35"/>
</svg>
