<svg xmlns="http://www.w3.org/2000/svg" version="1.1" xmlns:xlink="http://www.w3.org/1999/xlink" xmlns:svgjs="http://svgjs.dev/svgjs" width="32" height="32"><svg width="32" height="32" viewBox="0 0 32 32" fill="none" xmlns="http://www.w3.org/2000/svg">
<rect width="32" height="32" rx="8" fill="#0F1319"></rect>
<path fill-rule="evenodd" clip-rule="evenodd" d="M10.2468 19.2189C10.4153 18.971 10.5192 18.6283 10.5192 18.2496C10.5192 17.4942 10.105 16.8818 9.59457 16.8818C9.08409 16.8818 8.66992 17.4942 8.66992 18.2496C8.66992 18.6283 8.7745 18.971 8.94236 19.2189C8.77381 19.4669 8.66992 19.8095 8.66992 20.1882C8.66992 20.5547 8.76761 20.8864 8.92654 21.1316C8.7683 21.3768 8.66992 21.7086 8.66992 22.075C8.66992 22.3584 8.7284 22.6213 8.82816 22.84C8.7284 23.0586 8.66992 23.3216 8.66992 23.6049C8.66992 24.3603 9.08409 24.9727 9.59457 24.9727C10.105 24.9727 10.5192 24.3603 10.5192 23.6049C10.5192 23.3216 10.4607 23.0586 10.361 22.84C10.4607 22.6213 10.5192 22.3584 10.5192 22.075C10.5192 21.7086 10.4215 21.3768 10.2633 21.1316C10.4215 20.8864 10.5192 20.5547 10.5192 20.1882C10.5192 19.8095 10.4146 19.4669 10.2468 19.2189Z" fill="#F4F4F4"></path>
<path d="M9.59473 14.6763V24.9244C11.2782 26.5169 13.4385 27.6184 15.8423 27.9991L9.59473 14.6763Z" fill="white"></path>
<path fill-rule="evenodd" clip-rule="evenodd" d="M10.1736 2C10.1701 2.00204 10.1674 2.00409 10.1639 2.00613C10.1605 2.00817 10.1577 2.01022 10.1543 2.01226L10.1736 2ZM10.7246 15.801C13.233 16.9263 16.3468 16.7397 18.9178 15.049C21.4888 13.3584 22.8682 10.5874 22.7925 7.86209L10.7246 15.801Z" fill="#F4F4F4"></path>
<path fill-rule="evenodd" clip-rule="evenodd" d="M9.59473 3.69482V20.8111C11.7935 18.6879 13.1722 15.6397 13.1722 12.253C13.1722 8.86622 11.7935 5.81801 9.59473 3.69482Z" fill="white"></path>
<path fill-rule="evenodd" clip-rule="evenodd" d="M9.59473 3.69482V20.8111C11.7935 18.6879 13.1722 15.6397 13.1722 12.253C13.1722 8.86622 11.7935 5.81801 9.59473 3.69482Z" fill="white"></path>
<path fill-rule="evenodd" clip-rule="evenodd" d="M17.091 23.7023C16.2957 24.4012 15.2485 24.8256 14.101 24.8256C11.6126 24.8256 9.59473 22.8277 9.59473 20.364C9.59473 17.9002 11.6126 15.9023 14.101 15.9023C15.4178 15.9023 16.6032 16.4616 17.4274 17.3539L21.8435 20.8687C22.2295 20.6555 22.6746 20.5343 23.1479 20.5343C24.6298 20.5343 25.8311 21.7236 25.8311 23.1908C25.8311 24.658 24.6298 25.8473 23.1479 25.8473C22.7111 25.8473 22.2983 25.7438 21.933 25.5599L20.8088 23.6676L20.5501 24.8637L17.091 23.7023Z" fill="#EAEAEA"></path>
<path d="M14.4105 24.8258C16.3863 24.8258 17.988 23.24 17.988 21.2837C17.988 19.3275 16.3863 17.7417 14.4105 17.7417C12.4347 17.7417 10.833 19.3275 10.833 21.2837C10.833 23.24 12.4347 24.8258 14.4105 24.8258Z" fill="white"></path>
<path d="M16.2334 20.8748C16.8223 20.8748 17.2997 20.4021 17.2997 19.819C17.2997 19.2359 16.8223 18.7632 16.2334 18.7632C15.6444 18.7632 15.167 19.2359 15.167 19.819C15.167 20.4021 15.6444 20.8748 16.2334 20.8748Z" fill="#EAEAEA"></path>
<path d="M16.7859 20.0557C17.0318 20.0557 17.2311 19.8584 17.2311 19.615C17.2311 19.3716 17.0318 19.1743 16.7859 19.1743C16.5401 19.1743 16.3408 19.3716 16.3408 19.615C16.3408 19.8584 16.5401 20.0557 16.7859 20.0557Z" fill="black"></path>
<path d="M25.1425 23.0547C25.5605 23.0547 25.8993 22.7192 25.8993 22.3054C25.8993 21.8916 25.5605 21.5562 25.1425 21.5562C24.7246 21.5562 24.3857 21.8916 24.3857 22.3054C24.3857 22.7192 24.7246 23.0547 25.1425 23.0547Z" fill="white"></path>
<path d="M25.4521 22.7141C25.699 22.7141 25.8993 22.5159 25.8993 22.2714C25.8993 22.0268 25.699 21.8286 25.4521 21.8286C25.2051 21.8286 25.0049 22.0268 25.0049 22.2714C25.0049 22.5159 25.2051 22.7141 25.4521 22.7141Z" fill="#3E3E3E"></path>
<path d="M13.7226 19.4448H9.59473V19.7854H13.7226V19.4448Z" fill="#0E1A26"></path>
<path fill-rule="evenodd" clip-rule="evenodd" d="M16.1643 22.2371C17.627 22.2371 18.8131 21.0628 18.8131 19.6147C18.8131 18.1665 17.627 16.9922 16.1643 16.9922C14.7017 16.9922 13.5156 18.1665 13.5156 19.6147C13.5156 21.0628 14.701 22.2371 16.1643 22.2371ZM16.1643 21.932C17.4571 21.932 18.5049 20.8946 18.5049 19.6147C18.5049 18.3348 17.4571 17.2973 16.1643 17.2973C14.8716 17.2973 13.8245 18.3348 13.8245 19.6147C13.8245 20.8946 14.8716 21.932 16.1643 21.932Z" fill="#0E1A26"></path>
</svg><style>@media (prefers-color-scheme: light) { :root { filter: none; } }
@media (prefers-color-scheme: dark) { :root { filter: none; } }
</style></svg>